<?xml version="1.0" encoding="UTF-8"?>
<svg version="1.1" xmlns="http://www.w3.org/2000/svg" width="500" height="500">
<path d="M0 0 C165 0 330 0 500 0 C500 165 500 330 500 500 C335 500 170 500 0 500 C0 335 0 170 0 0 Z " fill="#272727" transform="translate(0,0)"/>
<path d="M0 0 C0.7523291 0.14453613 1.5046582 0.28907227 2.27978516 0.43798828 C32.73905578 6.51906751 61.62178419 19.80993389 86 39 C86.54720703 39.43006348 87.09441406 39.86012695 87.65820312 40.30322266 C107.87679034 56.38842312 124.42788529 75.43821322 137 98 C137.3707666 98.6487207 137.7415332 99.29744141 138.12353516 99.96582031 C147.06424839 115.65301976 153.65004683 132.47287161 158 150 C158.27457031 151.06476563 158.54914063 152.12953125 158.83203125 153.2265625 C164.6697904 177.78541134 166.15775261 207.36898958 160 232 C115.45 232 70.9 232 25 232 C29.25305022 225.31663537 33.44327901 218.84659529 38.125 212.5 C42.69659048 206.23994753 47.14941045 199.9155218 51.5 193.5 C56.22960003 186.53309106 61.08305808 179.67280975 66.03710938 172.86401367 C71.97175107 164.69491121 77.80893293 156.44909026 83.48828125 148.10009766 C85 146 85 146 86.48046875 144.42724609 C92.38703197 137.88813903 90.37285183 133.03437073 91 123 C47.44 123 3.88 123 -41 123 C-41 134.22 -41 145.44 -41 157 C-20.87 157 -0.74 157 20 157 C18.19743542 161.50641145 16.13468646 164.77190011 13.25 168.5625 C8.74425342 174.59283824 4.36573396 180.69852378 0.0625 186.875 C-0.52934082 187.72368652 -1.12118164 188.57237305 -1.73095703 189.44677734 C-2.91667428 191.14717939 -4.10222309 192.8476989 -5.28759766 194.54833984 C-7.88733214 198.27040054 -10.50466412 201.97992544 -13.125 205.6875 C-13.61218506 206.3769873 -14.09937012 207.06647461 -14.60131836 207.77685547 C-15.57817403 209.15909731 -16.55514286 210.54125919 -17.53222656 211.92333984 C-20.51653726 216.14565302 -23.49716361 220.37056819 -26.47851562 224.5949707 C-29.10167806 228.31154949 -31.72587441 232.0273925 -34.3515625 235.7421875 C-34.89941406 236.51755859 -35.44726562 237.29292969 -36.01171875 238.09179688 C-37.06347968 239.58030598 -38.11554816 241.06859784 -39.16796875 242.55664062 C-39.64105469 243.22630859 -40.11414063 243.89597656 -40.6015625 244.5859375 C-41.01744629 245.1742334 -41.43333008 245.7625293 -41.86181641 246.36865234 C-47.05897074 253.81768392 -45.10196612 252.52949174 -46 266 C18.68 266 83.36 266 150 266 C146.07821922 285.60890392 133.18994645 304.51442826 121 320 C120.56993652 320.54720703 120.13987305 321.09441406 119.69677734 321.65820312 C104.15679414 341.19146952 85.72549865 357.75892959 63.89355469 369.93945312 C61.97070989 371.01640488 60.06837387 372.12504874 58.1640625 373.234375 C40.51350807 383.27342533 20.75104613 389.55901529 1 394 C0.33178223 394.16226074 -0.33643555 394.32452148 -1.02490234 394.49169922 C-47.26788117 405.50409698 -97.67849844 392.10903598 -138.34619141 370.01806641 C-140 369 -140 369 -142 367 C-142.25333309 364.16599083 -142.25333309 364.16599083 -142.25828552 360.46713257 C-142.26196123 359.7881534 -142.26563693 359.10917423 -142.26942402 358.40961993 C-142.27944475 356.12245126 -142.27524485 353.83552383 -142.27124023 351.54833984 C-142.27562579 349.91212708 -142.28092733 348.27591655 -142.28707886 346.63970947 C-142.29860709 343.10605885 -142.30404046 339.57246841 -142.30496025 336.03879929 C-142.30690232 330.42836836 -142.32497121 324.8180608 -142.34571838 319.20767212 C-142.39492315 305.25078729 -142.4256136 291.29386831 -142.44702148 277.33691406 C-142.46363924 266.52867992 -142.48677228 255.72055027 -142.53004223 244.91238558 C-142.54807652 240.26145502 -142.5604577 235.61066625 -142.55874443 230.95969772 C-142.55351524 212.12751543 -142.59214083 193.65258744 -145.8451395 175.0310154 C-146.01527849 172.79962066 -145.65511357 171.12771409 -145 169 C-142.29885917 175.70403628 -140.49956004 182.49425098 -138.75 189.5 C-136.46538626 198.4864729 -134.06978066 207.42150136 -131.4375 216.3125 C-129.1567952 224.0229999 -126.92981353 231.74286514 -124.8125 239.5 C-124.5868335 240.32282471 -124.36116699 241.14564941 -124.12866211 241.9934082 C-121.96467379 249.96893621 -120.00556446 257.97774216 -118 266 C-106.12 266 -94.24 266 -82 266 C-81.34 263.03 -80.68 260.06 -80 257 C-79.25633771 253.84729086 -78.47386144 250.70481661 -77.6875 247.5625 C-77.3615686 246.25998291 -77.3615686 246.25998291 -77.02905273 244.93115234 C-75.03948974 237.04603025 -72.87103098 229.21719529 -70.66796875 221.38964844 C-69.44527592 217.0154827 -68.25498503 212.63247898 -67.0625 208.25 C-66.81483887 207.34024414 -66.56717773 206.43048828 -66.31201172 205.49316406 C-65.80394577 203.62665229 -65.29597164 201.76011552 -64.78808594 199.89355469 C-63.96707806 196.87912303 -63.14396472 193.86527264 -62.3203125 190.8515625 C-62.04695068 189.85092773 -61.77358887 188.85029297 -61.49194336 187.81933594 C-60.96700986 185.89803153 -60.44179501 183.97680396 -59.91625977 182.05566406 C-59.67963623 181.1890918 -59.4430127 180.32251953 -59.19921875 179.4296875 C-58.99127686 178.66897949 -58.78333496 177.90827148 -58.5690918 177.12451172 C-58.3812915 176.42342285 -58.19349121 175.72233398 -58 175 C-57.82749725 174.3964267 -57.65499451 173.79285339 -57.4772644 173.17098999 C-56.95135624 170.7787283 -56.83978686 168.58842935 -56.79467773 166.13964844 C-56.77473251 165.17895447 -56.75478729 164.2182605 -56.73423767 163.22845459 C-56.71752518 162.19915833 -56.70081268 161.16986206 -56.68359375 160.109375 C-56.6524221 158.51974945 -56.6524221 158.51974945 -56.62062073 156.89801025 C-56.55527814 153.51540562 -56.49631119 150.13272388 -56.4375 146.75 C-56.39430025 144.45572122 -56.35068549 142.16145021 -56.30664062 139.8671875 C-56.19961235 134.24487052 -56.09830167 128.62247605 -56 123 C-62.6 123 -69.2 123 -76 123 C-76.33 125.97 -76.66 128.94 -77 132 C-77.69199676 134.80266189 -78.42166851 137.53618334 -79.24609375 140.296875 C-81.13110007 146.8426339 -82.89910879 153.40311686 -84.53515625 160.015625 C-84.74345062 160.8554895 -84.951745 161.695354 -85.16635132 162.56066895 C-85.80034161 165.12330512 -86.43185722 167.68653812 -87.0625 170.25 C-91.68629684 189.04246934 -91.68629684 189.04246934 -94.18359375 198.171875 C-94.4870874 199.28143555 -94.79058105 200.39099609 -95.10327148 201.53417969 C-96 204 -96 204 -98 205 C-98.15557373 204.40276123 -98.31114746 203.80552246 -98.47143555 203.19018555 C-101.33595082 192.1957029 -104.2054743 181.2026354 -107.10205078 170.21655273 C-109.02474747 162.91873147 -110.92710626 155.61564334 -112.82666016 148.31176758 C-113.95930357 143.96281636 -115.09809674 139.61602455 -116.26953125 135.27734375 C-116.45829834 134.57770508 -116.64706543 133.87806641 -116.84155273 133.15722656 C-117.33726919 131.32681908 -117.8364606 129.49735367 -118.3359375 127.66796875 C-119 125 -119 125 -119 123 C-140.45 123 -161.9 123 -184 123 C-184 191.97 -184 260.94 -184 332 C-202.01575039 313.98424961 -214.40018259 292.49565701 -224 269 C-224.27972656 268.3188916 -224.55945313 267.6377832 -224.84765625 266.93603516 C-237.94563458 234.37300569 -241.52287453 194.31941286 -234 160 C-233.83371094 159.1848291 -233.66742188 158.3696582 -233.49609375 157.52978516 C-223.46565616 108.59425216 -195.47983947 64.46014191 -155 35 C-154.43651855 34.58685547 -153.87303711 34.17371094 -153.29248047 33.74804688 C-109.30014479 1.90501411 -53.27220258 -10.28560763 0 0 Z " fill="#FDFDFD" transform="translate(287,53)"/>
<path d="M0 0 C13.86 0 27.72 0 42 0 C42 8.99610895 42 8.99610895 39.6484375 12.015625 C39.134021 12.69890869 38.61960449 13.38219238 38.08959961 14.08618164 C37.52378174 14.8002417 36.95796387 15.51430176 36.375 16.25 C35.17400567 17.83589651 33.97485158 19.42318795 32.77734375 21.01171875 C32.15327637 21.82946777 31.52920898 22.6472168 30.88623047 23.48974609 C27.79429612 27.60458806 24.87008573 31.8333682 21.9375 36.0625 C20.77133903 37.73472777 19.6046751 39.40660491 18.4375 41.078125 C17.86773437 41.89474609 17.29796875 42.71136719 16.7109375 43.55273438 C13.96471301 47.48083858 11.2023734 51.39750855 8.4375 55.3125 C7.96111084 55.98740479 7.48472168 56.66230957 6.99389648 57.35766602 C6.09994466 58.62299815 5.20474384 59.88744909 4.30810547 61.15087891 C3.39544819 62.44099952 2.48867012 63.7352906 1.58642578 65.03271484 C0.41508611 66.70563784 -0.78934896 68.35530184 -2 70 C-2.33 70 -2.66 70 -3 70 C-3.05147344 63.49368746 -3.08605098 56.98742896 -3.10986328 50.48095703 C-3.11980916 48.27585895 -3.13337064 46.07077366 -3.15087891 43.86572266 C-3.38531098 13.54124393 -3.38531098 13.54124393 0 0 Z " fill="#282828" transform="translate(232,225)"/>
<path d="M0 0 C1.98 0 3.96 0 6 0 C6.99 2.97 7.98 5.94 9 9 C10.32 6.03 11.64 3.06 13 0 C14.65 0 16.3 0 18 0 C19.0712828 6.02596573 19.09945415 11.88909517 19 18 C17.68 18 16.36 18 15 18 C15 15.03 15 12.06 15 9 C14.34 9 13.68 9 13 9 C12.34 11.97 11.68 14.94 11 18 C10.01 18 9.02 18 8 18 C7.01 15.69 6.02 13.38 5 11 C4.67 13.31 4.34 15.62 4 18 C2.35 18 0.7 18 -1 18 C-0.505 9.09 -0.505 9.09 0 0 Z " fill="#363636" transform="translate(166,336)"/>
<path d="M0 0 C5 1 5 1 6.58203125 2.62890625 C6.98808594 3.26699219 7.39414062 3.90507812 7.8125 4.5625 C8.44091797 5.52349609 8.44091797 5.52349609 9.08203125 6.50390625 C9.38496094 6.99761719 9.68789063 7.49132812 10 8 C10.33 5.36 10.66 2.72 11 0 C12.32 0 13.64 0 15 0 C15 5.94 15 11.88 15 18 C10 17 10 17 8.41796875 15.15234375 C7.27864583 13.1015625 6.13932292 11.05078125 5 9 C4.67 11.97 4.34 14.94 4 18 C2.68 18 1.36 18 0 18 C0 12.06 0 6.12 0 0 Z " fill="#2E2E2E" transform="translate(299,336)"/>
<path d="M0 0 C21.12 0 42.24 0 64 0 C64 0.99 64 1.98 64 3 C42.88 3 21.76 3 0 3 C0 2.01 0 1.02 0 0 Z " fill="#272727" transform="translate(103,156)"/>
<path d="M0 0 C0.66 1.32 1.32 2.64 2 4 C0.68 4 -0.64 4 -2 4 C-5.30185684 4.35304294 -5.30185684 4.35304294 -8 6 C-7.71269945 8.33944736 -7.38063221 10.6739143 -7 13 C-5.35 13 -3.7 13 -2 13 C-1.67 12.34 -1.34 11.68 -1 11 C-2.32 11 -3.64 11 -5 11 C-5 10.01 -5 9.02 -5 8 C-2.03 8 0.94 8 4 8 C3.51834131 14.38197767 3.51834131 14.38197767 1.375 16.9375 C-2.02619871 18.4590889 -4.31282731 18.51749792 -8 18 C-10.9375 16.0625 -10.9375 16.0625 -13 13 C-13.87209775 8.70071108 -13.71988642 5.28327579 -11.5625 1.4375 C-7.7722199 -0.68875469 -4.25016698 -0.32693592 0 0 Z " fill="#343434" transform="translate(331,336)"/>
<path d="M0 0 C1.65 0 3.3 0 5 0 C6.0063655 2.43504509 7.00526413 4.87270864 8 7.3125 C8.28617187 8.00279297 8.57234375 8.69308594 8.8671875 9.40429688 C10.08910744 12.41545674 11 14.71886984 11 18 C9.68 18 8.36 18 7 18 C6.67 16.68 6.34 15.36 6 14 C3.69 14.33 1.38 14.66 -1 15 C-1.33 15.99 -1.66 16.98 -2 18 C-3.65 18 -5.3 18 -7 18 C-6.02216461 15.37449704 -5.0427937 12.74958495 -4.0625 10.125 C-3.78470703 9.37863281 -3.50691406 8.63226563 -3.22070312 7.86328125 C-1.11328125 2.2265625 -1.11328125 2.2265625 0 0 Z " fill="#3E3E3E" transform="translate(285,336)"/>
<path d="M0 0 C1.65 0 3.3 0 5 0 C6.16878263 2.81163781 7.33511948 5.62424608 8.5 8.4375 C8.83386719 9.23994141 9.16773438 10.04238281 9.51171875 10.86914062 C9.98544922 12.01479492 9.98544922 12.01479492 10.46875 13.18359375 C10.90864258 14.24404907 10.90864258 14.24404907 11.35742188 15.32592773 C12 17 12 17 12 18 C10.35 18 8.7 18 7 18 C6.67 17.01 6.34 16.02 6 15 C3.69 14.67 1.38 14.34 -1 14 C-1.33 15.32 -1.66 16.64 -2 18 C-3.32 18 -4.64 18 -6 18 C-5.31583566 13.82423832 -3.98634991 10.11919593 -2.4375 6.1875 C-1.75494141 4.44533203 -1.75494141 4.44533203 -1.05859375 2.66796875 C-0.70925781 1.78753906 -0.35992187 0.90710938 0 0 Z " fill="#3D3D3D" transform="translate(193,336)"/>
<path d="M0 0 C1.32 0 2.64 0 4 0 C4 2.31 4 4.62 4 7 C5.98 7 7.96 7 10 7 C10 4.69 10 2.38 10 0 C11.32 0 12.64 0 14 0 C14 5.94 14 11.88 14 18 C12.68 18 11.36 18 10 18 C10 15.69 10 13.38 10 11 C8.02 11 6.04 11 4 11 C4 13.31 4 15.62 4 18 C2.68 18 1.36 18 0 18 C0 12.06 0 6.12 0 0 Z " fill="#2B2B2B" transform="translate(262,336)"/>
<path d="M0 0 C4.62 0 9.24 0 14 0 C12.58843021 3.52892447 11.22615467 6.54862203 9.375 9.8125 C8.92898437 10.60269531 8.48296875 11.39289063 8.0234375 12.20703125 C7.68570313 12.79871094 7.34796875 13.39039063 7 14 C9.31 14 11.62 14 14 14 C14 15.32 14 16.64 14 18 C9.05 18 4.1 18 -1 18 C4.28571429 7.28571429 4.28571429 7.28571429 7 3 C4.69 3 2.38 3 0 3 C0 2.01 0 1.02 0 0 Z " fill="#313131" transform="translate(244,336)"/>
<path d="M0 0 C3.96 0 7.92 0 12 0 C12 1.32 12 2.64 12 4 C10.68 4 9.36 4 8 4 C8 8.62 8 13.24 8 18 C6.68 18 5.36 18 4 18 C4 13.05 4 8.1 4 3 C2.68 3 1.36 3 0 3 C0 2.01 0 1.02 0 0 Z " fill="#2F2F2F" transform="translate(221,336)"/>
<path d="M0 0 C3.96 0 7.92 0 12 0 C12 0.99 12 1.98 12 3 C10.68 3 9.36 3 8 3 C8 7.95 8 12.9 8 18 C6.68 18 5.36 18 4 18 C4 13.38 4 8.76 4 4 C2.68 4 1.36 4 0 4 C0 2.68 0 1.36 0 0 Z " fill="#323232" transform="translate(206,336)"/>
<path d="M0 0 C1.67542976 0.28604898 3.34385343 0.61781233 5 1 C5 2.98 5 4.96 5 7 C2.625 7.625 2.625 7.625 0 8 C-0.66 7.34 -1.32 6.68 -2 6 C-1.44444444 1.44444444 -1.44444444 1.44444444 0 0 Z " fill="#B0B0B0" transform="translate(220,365)"/>
<path d="M0 0 C0.99 0.495 0.99 0.495 2 1 C2.62669199 3.16467461 3.15427374 5.35864524 3.625 7.5625 C3.88539063 8.76003906 4.14578125 9.95757812 4.4140625 11.19140625 C4.60742188 12.11824219 4.80078125 13.04507813 5 14 C4.34 14 3.68 14 3 14 C3 15.98 3 17.96 3 20 C2.67 20 2.34 20 2 20 C1.34 13.4 0.68 6.8 0 0 Z " fill="#C8C8C8" transform="translate(141,222)"/>
<path d="M0 0 C2.97 0.495 2.97 0.495 6 1 C5.67 2.32 5.34 3.64 5 5 C4.01 5 3.02 5 2 5 C2 5.99 2 6.98 2 8 C1.34 8 0.68 8 0 8 C0 5.36 0 2.72 0 0 Z " fill="#9E9E9E" transform="translate(249,365)"/>
<path d="M0 0 C0.99 0.33 1.98 0.66 3 1 C4.1875 4.5625 4.1875 4.5625 5 8 C3.33333333 8 1.66666667 8 0 8 C0 5.36 0 2.72 0 0 Z " fill="#8D8D8D" transform="translate(233,365)"/>
<path d="M0 0 C0.66 0.33 1.32 0.66 2 1 C1.67 4.96 1.34 8.92 1 13 C0.01 12.34 -0.98 11.68 -2 11 C-1.34 7.37 -0.68 3.74 0 0 Z " fill="#CFCFCF" transform="translate(230,224)"/>
<path d="M0 0 C0.66 0 1.32 0 2 0 C4.125 4.625 4.125 4.625 3 8 C3 7.34 3 6.68 3 6 C1.68 6 0.36 6 -1 6 C-0.67 4.02 -0.34 2.04 0 0 Z " fill="#818181" transform="translate(264,365)"/>
</svg>
